<?xml version="1.0" encoding="UTF-8" standalone="no"?>
<!-- Created with Inkscape (http://www.inkscape.org/) -->

<svg
   xmlns:dc="http://purl.org/dc/elements/1.1/"
   xmlns:cc="http://creativecommons.org/ns#"
   xmlns:rdf="http://www.w3.org/1999/02/22-rdf-syntax-ns#"
   xmlns:svg="http://www.w3.org/2000/svg"
   xmlns="http://www.w3.org/2000/svg"
   xmlns:sodipodi="http://sodipodi.sourceforge.net/DTD/sodipodi-0.dtd"
   xmlns:inkscape="http://www.inkscape.org/namespaces/inkscape"
   width="800"
   height="200"
   id="svg3271"
   version="1.1"
   inkscape:version="0.48.4 r9939"
   sodipodi:docname="jasmin-logo.svg">
  <defs
     id="defs3273" />
  <sodipodi:namedview
     id="base"
     pagecolor="#ffffff"
     bordercolor="#666666"
     borderopacity="1.0"
     inkscape:pageopacity="0.0"
     inkscape:pageshadow="2"
     inkscape:zoom="1.15375"
     inkscape:cx="400"
     inkscape:cy="100"
     inkscape:document-units="px"
     inkscape:current-layer="layer1"
     showgrid="false"
     height="500px"
     inkscape:window-width="1366"
     inkscape:window-height="719"
     inkscape:window-x="0"
     inkscape:window-y="0"
     inkscape:window-maximized="1" />
  <metadata
     id="metadata3276">
    <rdf:RDF>
      <cc:Work
         rdf:about="">
        <dc:format>image/svg+xml</dc:format>
        <dc:type
           rdf:resource="http://purl.org/dc/dcmitype/StillImage" />
        <dc:title></dc:title>
      </cc:Work>
    </rdf:RDF>
  </metadata>
  <g
     inkscape:label="Layer 1"
     inkscape:groupmode="layer"
     id="layer1"
     transform="translate(0,-852.36218)">
    <g
       id="g3103"
       transform="translate(-99,3.1455829e-7)">
      <g
         transform="matrix(1.0966541,0,0,1.0966541,12.897237,-85.475825)"
         id="text4509"
         style="font-size:98.10242462px;font-style:normal;font-variant:normal;font-weight:normal;font-stretch:normal;text-align:center;line-height:125%;letter-spacing:0px;word-spacing:0px;text-anchor:middle;fill:#0480bc;fill-opacity:1;stroke:none;font-family:TitilliumText22L;-inkscape-font-specification:TitilliumText22L">
        <path
           style="fill:#0480bc;fill-opacity:1"
           sodipodi:nodetypes="ccsccsc"
           inkscape:connector-curvature="0"
           id="path4241"
           d="m 135.74391,925.30663 -7.45579,-8 0,82.80127 c 0,10.8894 -2.35446,11.5761 -11.08557,11.5761 l 0,7.0634 c 12.94951,0 18.63946,-1.4716 18.63946,-17.7565 0,-20.99394 -0.0981,-52.88658 -0.0981,-73.68427" />
        <path
           id="path4243"
           style="fill:#0480bc;fill-opacity:1"
           d="m 186.71731,977.64248 c 0,-11.08556 -5.10133,-15.9907 -15.50018,-15.9907 -7.55388,0 -19.32618,1.96205 -19.32618,1.96205 l 0.29431,6.37666 c 0,0 11.57609,-1.27533 18.73756,-1.27533 5.39563,0 8.53491,2.74687 8.53491,8.92732 l 0,4.0222 -15.50018,1.47154 c -10.10454,0.88292 -14.91157,5.10133 -14.91157,14.51915 0,9.61403 4.80703,15.00963 13.34193,15.00963 9.31972,0 18.14895,-3.7278 18.14895,-3.7278 2.55066,2.6487 5.68995,3.7278 11.57609,3.7278 l 0.2943,-6.3766 c -3.13927,-0.3924 -5.49373,-1.3734 -5.68994,-4.5127 l 0,-24.13322 m -7.25958,10.00645 0,15.69637 c 0,0 -8.53492,2.9431 -15.99069,2.9431 -4.41461,0 -6.96527,-3.1393 -6.96527,-8.82923 0,-5.00322 2.45256,-8.0444 8.4368,-8.63301 l 14.51916,-1.17723"
           inkscape:connector-curvature="0" />
        <path
           id="path4245"
           style="fill:#0480bc;fill-opacity:1"
           d="m 236.20845,963.51573 c 0,0 -10.39886,-1.86395 -17.75653,-1.86395 -8.92732,0 -17.65844,3.5317 -17.65844,14.32296 0,9.61403 5.29754,11.9685 17.26603,13.83244 9.81023,1.56964 12.3609,2.74687 12.3609,7.84819 0,6.67093 -4.31651,8.43683 -12.3609,8.43683 -5.00322,0 -16.1869,-1.6678 -16.1869,-1.6678 l -0.39241,6.3767 c 0,0 10.98747,1.8639 17.26602,1.8639 11.87038,0 19.12998,-3.826 19.12998,-15.30393 0,-9.51593 -4.70893,-12.16471 -17.65844,-14.22485 -9.71213,-1.47154 -11.9685,-2.84498 -11.9685,-7.45579 0,-5.78804 4.51272,-7.35768 10.59507,-7.35768 6.27854,0 17.16792,1.56964 17.16792,1.56964 l 0.1962,-6.37666"
           inkscape:connector-curvature="0" />
        <path
           id="path4247"
           style="fill:#0480bc;fill-opacity:1"
           d="m 259.192,1011.684 0,-39.63336 c 0,0 6.57287,-3.62979 13.14573,-3.62979 8.92731,0 10.30075,4.41462 10.30075,17.95275 l 0,25.3104 7.35769,0 0,-25.50661 c 0,-5.88614 -0.39241,-11.8704 -1.17723,-14.12675 0.1962,-0.0981 7.06338,-3.62979 13.73434,-3.62979 9.31972,0 10.30075,5.00324 10.30075,20.0129 l 0,23.25025 7.35768,0 0,-25.50661 c 0,-18.14893 -3.23739,-24.52561 -16.57931,-24.52561 -6.76906,0 -14.91157,3.33549 -17.75654,4.41461 -1.96204,-2.35445 -4.90512,-3.72789 -9.02542,-4.1203 -1.56964,-0.1962 -3.43359,-0.0981 -5.39563,0.0981 -6.37665,0.39241 -12.26281,3.9241 -12.26281,3.9241 l 0,-3.33548 -7.35768,0 0,49.05119 7.35768,0"
           inkscape:connector-curvature="0" />
        <path
           id="path4249"
           style="fill:#0480bc;fill-opacity:1"
           d="m 335.9357,1011.684 7.25957,0 0,-49.05119 -7.25957,0 0,49.05119 m 0,-60.13677 7.25957,0 0,-8.53491 -7.25957,0 0,8.53491"
           inkscape:connector-curvature="0" />
        <path
           id="path4251"
           style="fill:#0480bc;fill-opacity:1"
           d="m 367.06636,1011.684 0,-39.63336 c 0,0 7.5539,-3.62979 14.02865,-3.62979 8.92731,0 10.39886,4.80703 10.39886,17.85464 l 0,25.40851 7.25958,0 0,-25.50661 c 0,-17.85462 -3.04119,-24.52561 -16.48121,-24.52561 -6.96527,0 -15.20588,4.21841 -15.20588,4.21841 l 0,-3.23738 -7.35768,0 0,49.05119 7.35768,0"
           inkscape:connector-curvature="0" />
        <path
           id="path4253"
           style="fill:#0480bc;fill-opacity:1"
           d="m 464.65223,983.72483 11.28178,0 0,20.40527 c -0.29431,0 -8.24061,1.2754 -14.02865,1.2754 -15.69637,0 -19.03187,-9.22168 -19.03187,-27.76302 0,-18.73754 3.4336,-27.95919 19.12997,-27.95919 8.92731,0 21.09202,2.06015 21.09202,2.06015 l 0.29431,-6.76907 c 0,0 -11.96851,-2.55066 -22.26925,-2.55066 -20.40528,0 -26.09524,12.65523 -26.09524,35.21877 0,22.17113 5.68996,35.02252 26.29145,35.02252 8.14249,0 22.07304,-2.3544 22.07304,-2.3544 l 0,-33.45294 -18.73756,0 0,6.86717"
           inkscape:connector-curvature="0" />
        <path
           id="path4255"
           style="fill:#0480bc;fill-opacity:1"
           d="m 531.99186,977.64248 c 0,-11.08556 -5.10134,-15.9907 -15.50019,-15.9907 -7.55387,0 -19.32617,1.96205 -19.32617,1.96205 l 0.2943,6.37666 c 0,0 11.5761,-1.27533 18.73757,-1.27533 5.39563,0 8.53491,2.74687 8.53491,8.92732 l 0,4.0222 -15.50018,1.47154 c -10.10454,0.88292 -14.91157,5.10133 -14.91157,14.51915 0,9.61403 4.80702,15.00963 13.34193,15.00963 9.31972,0 18.14894,-3.7278 18.14894,-3.7278 2.55067,2.6487 5.68995,3.7278 11.57609,3.7278 l 0.29431,-6.3766 c -3.13928,-0.3924 -5.49374,-1.3734 -5.68994,-4.5127 l 0,-24.13322 m -7.25958,10.00645 0,15.69637 c 0,0 -8.53492,2.9431 -15.9907,2.9431 -4.4146,0 -6.96527,-3.1393 -6.96527,-8.82923 0,-5.00322 2.45257,-8.0444 8.43681,-8.63301 l 14.51916,-1.17723"
           inkscape:connector-curvature="0" />
        <path
           id="path4257"
           style="fill:#0480bc;fill-opacity:1"
           d="m 573.14428,969.30377 0,-6.67096 -15.50018,0 0,-15.00967 -7.35768,0 0,15.00967 -6.96527,0 0,6.67096 6.96527,0 0,25.50663 c 0,14.1267 3.5317,17.9527 13.63624,17.9527 3.43358,0 9.90834,-1.0791 9.90834,-1.0791 l -0.39241,-6.3766 c 0,0 -5.98425,0.4905 -8.73111,0.4905 -6.47476,0 -7.06338,-2.9431 -7.06338,-13.63626 l 0,-22.85787 15.50018,0"
           inkscape:connector-curvature="0" />
        <path
           id="path4259"
           style="fill:#0480bc;fill-opacity:1"
           d="m 601.6216,1005.9941 c -9.71213,0 -12.85142,-5.3957 -12.94952,-15.69641 l 32.4719,0 0.39241,-5.68994 c 0,-16.08878 -6.76908,-22.95597 -19.71858,-22.95597 -12.459,0 -20.60151,7.1615 -20.60151,25.80094 0,16.67738 4.80703,25.21228 19.52238,25.21228 7.94629,0 19.03187,-1.5696 19.03187,-1.5696 l -0.1962,-5.9842 c 0,0 -10.59507,0.8829 -17.95275,0.8829 m -12.94952,-21.68066 c 0,-11.47797 4.70893,-16.08879 13.14573,-16.08879 8.5349,0 12.3609,4.31652 12.3609,16.08879 l -25.50663,0"
           inkscape:connector-curvature="0" />
        <path
           id="path4261"
           style="fill:#0480bc;fill-opacity:1"
           d="m 628.87567,962.63281 11.57609,49.05119 12.2628,0 10.49696,-38.35803 10.30075,38.35803 12.45901,0 11.67419,-49.05119 -7.35768,0 -9.90835,42.38029 -1.56963,0 -11.67419,-41.39927 -7.75009,0 -11.7723,41.39927 -1.56963,0 -9.81025,-42.38029 -7.35768,0"
           inkscape:connector-curvature="0" />
        <path
           id="path4263"
           style="fill:#0480bc;fill-opacity:1"
           d="m 742.95041,977.64248 c 0,-11.08556 -5.10133,-15.9907 -15.50018,-15.9907 -7.55388,0 -19.32618,1.96205 -19.32618,1.96205 l 0.29431,6.37666 c 0,0 11.57609,-1.27533 18.73756,-1.27533 5.39563,0 8.53492,2.74687 8.53492,8.92732 l 0,4.0222 -15.50019,1.47154 c -10.10454,0.88292 -14.91157,5.10133 -14.91157,14.51915 0,9.61403 4.80703,15.00963 13.34193,15.00963 9.31972,0 18.14895,-3.7278 18.14895,-3.7278 2.55066,2.6487 5.68995,3.7278 11.57609,3.7278 l 0.29431,-6.3766 c -3.13928,-0.3924 -5.49374,-1.3734 -5.68995,-4.5127 l 0,-24.13322 m -7.25957,10.00645 0,15.69637 c 0,0 -8.53492,2.9431 -15.9907,2.9431 -4.4146,0 -6.96527,-3.1393 -6.96527,-8.82923 0,-5.00322 2.45256,-8.0444 8.43681,-8.63301 l 14.51916,-1.17723"
           inkscape:connector-curvature="0" />
        <path
           id="path4265"
           style="fill:#0480bc;fill-opacity:1"
           d="m 753.9854,962.63281 13.93054,49.05119 7.16148,0 -6.27856,21.7788 7.35769,0 20.4053,-70.82999 -7.35768,0 -12.26281,41.98779 -3.33548,0 -12.2628,-41.98779 -7.35768,0"
           inkscape:connector-curvature="0" />
      </g>
      <path
         inkscape:transform-center-x="1.9802518"
         sodipodi:type="star"
         style="fill:#0480bc;fill-opacity:1;stroke:#0480bc;stroke-width:10;stroke-linejoin:round;stroke-miterlimit:4;stroke-opacity:1;stroke-dasharray:none"
         id="path3332"
         sodipodi:sides="5"
         sodipodi:cx="880.90735"
         sodipodi:cy="167.52596"
         sodipodi:r1="11.137204"
         sodipodi:r2="95.876129"
         sodipodi:arg1="1.3232047"
         sodipodi:arg2="1.0316544"
         inkscape:flatsided="false"
         inkscape:rounded="10"
         inkscape:randomized="0"
         d="m 883.63674,178.32354 c -334.6019,784.29739 837.88466,388.9383 46.4934,71.47847 C 36.634012,-108.61632 1830.3679,259.11043 871.48167,173.4584 22.172849,97.594306 760.49995,1090.5226 817.86885,239.76431 882.63945,-720.75836 1087.2048,1098.8177 872.35257,160.39483 682.05275,-670.78915 -34.122539,338.23336 792.72462,129.89566 1726.2512,-105.32167 58.945644,651.51145 885.04588,157.18623 1616.7429,-280.64963 435.79517,-649.96769 889.44593,72.030799 1401.6265,887.18116 166.60966,-464.64634 892.01989,168.26679 1534.5334,728.85332 1520.8428,-508.42031 974.36721,146.137 357.38563,885.14496 1261.4088,-707.1635 883.63674,178.32354 z"
         transform="matrix(0.09072489,-0.01628576,0.01628576,0.09072489,75.137591,902.93099)"
         inkscape:transform-center-y="-10.209754" />
    </g>
  </g>
</svg>
